<svg xmlns="http://www.w3.org/2000/svg" width="1280" height="640" viewBox="0 0 1280 640">
  <defs>
    <linearGradient id="background" x1="0" y1="0" x2="1" y2="1">
      <stop offset="0" stop-color="#091225"/>
      <stop offset="1" stop-color="#142B42"/>
    </linearGradient>
    <radialGradient id="glow" cx="0.83" cy="0.2" r="0.72">
      <stop offset="0" stop-color="#32C7B5" stop-opacity="0.22"/>
      <stop offset="1" stop-color="#32C7B5" stop-opacity="0"/>
    </radialGradient>
  </defs>

  <rect width="1280" height="640" fill="url(#background)"/>
  <rect width="1280" height="640" fill="url(#glow)"/>
  <path d="M0 526 C225 455 405 600 650 518 C868 445 1055 540 1280 458"
        fill="none" stroke="#58D2C1" stroke-opacity="0.16" stroke-width="2"/>
  <path d="M0 555 C244 483 432 622 670 548 C900 477 1080 570 1280 498"
        fill="none" stroke="#B7E7DF" stroke-opacity="0.09" stroke-width="2"/>

  <text x="72" y="74" fill="#7DD8CC" font-family="Helvetica, Arial, sans-serif"
        font-size="23" font-weight="700" letter-spacing="4">RIEMANN ZETA FUNCTION</text>

  <text x="68" y="250" fill="#FFFFFF" font-family="Georgia, 'Times New Roman', serif"
        font-size="104" font-weight="700">67.3316977142%</text>
  <text x="74" y="308" fill="#D7E5EC" font-family="Georgia, 'Times New Roman', serif"
        font-size="38">simple zeros on the critical line</text>

  <rect x="73" y="353" width="132" height="5" rx="2.5" fill="#58D2C1"/>
  <text x="73" y="417" fill="#F1F5F7" font-family="Helvetica, Arial, sans-serif"
        font-size="31" font-weight="500">A two-certificate trace–energy deduction</text>
  <text x="73" y="463" fill="#AFC4CF" font-family="Helvetica, Arial, sans-serif"
        font-size="23">Yuhang Shi  ·  version 0.1.0</text>

  <rect x="72" y="536" width="617" height="47" rx="23.5"
        fill="#0B1728" stroke="#58D2C1" stroke-opacity="0.72"/>
  <text x="96" y="567" fill="#BCE9E2" font-family="Helvetica, Arial, sans-serif"
        font-size="19" font-weight="700" letter-spacing="1.6">RESEARCH-DRAFT CANDIDATE · EXACT CHECKS INCLUDED</text>

  <text x="1208" y="570" text-anchor="end" fill="#8EA7B4"
        font-family="Helvetica, Arial, sans-serif" font-size="18">github.com/yuhangshi888</text>
</svg>
